@startuml sick-leave-model-uz
hide circle
hide empty members
title Mehnatga layoqatsizlik yozuvi qanday tuzilgan

class SickLeaveObservation [[StructureDefinition-sick-leave-observation.html{Sick Leave Observation profilini ochish}]] #E8F0FE
class SickLeaveCarePlan [[StructureDefinition-sick-leave-careplan.html{Sick Leave CarePlan profilini ochish}]] #E8F0FE
class SickLeaveRelatedPerson [[StructureDefinition-sick-leave-related-person.html{Sick Leave Related Person profilini ochish}]] #E8F0FE
class Patient [[https://dhp.uz/fhir/core/StructureDefinition-uz-core-patient.html{UZ Core Patient profilini ochish}]]
class Practitioner [[https://dhp.uz/fhir/core/StructureDefinition-uz-core-practitioner.html{UZ Core Practitioner profilini ochish}]]

SickLeaveCarePlan "1" <-- "0..*" SickLeaveObservation : « basedOn »
Patient "1" <-- "0..*" SickLeaveCarePlan : « subject »
Practitioner "0..*" <-- "0..*" SickLeaveCarePlan : « contributor / custodian »
SickLeaveRelatedPerson "0..1" <-- "0..*" SickLeaveCarePlan : « extension[relatedPerson] »
Patient "1" <-- "0..*" SickLeaveRelatedPerson : « patient »

@enduml
